<svg width="33" height="32" viewBox="0 0 33 32" fill="none" xmlns="http://www.w3.org/2000/svg">
<path d="M24.4262 28.9552C24.2068 28.9561 23.9903 28.9038 23.7951 28.8026L16.7983 25.0971L9.80161 28.8026C9.57441 28.9234 9.31825 28.9774 9.06225 28.9583C8.80625 28.9392 8.56068 28.8478 8.35346 28.6946C8.14623 28.5414 7.98567 28.3324 7.89001 28.0914C7.79435 27.8504 7.76744 27.5872 7.81234 27.3315L9.18425 19.5181L3.53198 13.9668C3.35564 13.7888 3.23054 13.5656 3.17011 13.3211C3.10969 13.0766 3.11622 12.8201 3.18901 12.579C3.26852 12.3324 3.41479 12.1132 3.61121 11.9464C3.80763 11.7796 4.04634 11.6718 4.30025 11.6353L12.1201 10.4834L15.5636 3.36393C15.676 3.1293 15.8514 2.93141 16.0697 2.79295C16.2881 2.65449 16.5406 2.58105 16.7983 2.58105C17.0561 2.58105 17.3086 2.65449 17.5269 2.79295C17.7453 2.93141 17.9207 3.1293 18.0331 3.36393L21.5177 10.4695L29.3376 11.6214C29.5915 11.6579 29.8302 11.7657 30.0266 11.9325C30.223 12.0993 30.3693 12.3185 30.4488 12.5651C30.5216 12.8062 30.5282 13.0627 30.4677 13.3072C30.4073 13.5517 30.2822 13.7749 30.1059 13.953L24.4536 19.5042L25.8255 27.3176C25.8745 27.5778 25.8488 27.8467 25.7516 28.0926C25.6544 28.3386 25.4896 28.5512 25.2767 28.7054C25.0283 28.8815 24.7292 28.9694 24.4262 28.9552Z" fill="#16425A"/>
</svg>
