<svg width="33" height="32" viewBox="0 0 33 32" fill="none" xmlns="http://www.w3.org/2000/svg">
<path d="M24.1227 28.9552C23.9033 28.9561 23.6869 28.9038 23.4916 28.8026L16.4949 25.0971L9.49814 28.8026C9.27094 28.9234 9.01478 28.9774 8.75879 28.9583C8.50279 28.9392 8.25722 28.8478 8.04999 28.6946C7.84277 28.5414 7.6822 28.3324 7.58654 28.0914C7.49088 27.8504 7.46397 27.5872 7.50887 27.3315L8.88078 19.5181L3.22852 13.9668C3.05217 13.7888 2.92707 13.5656 2.86665 13.3211C2.80622 13.0766 2.81275 12.8201 2.88554 12.579C2.96506 12.3324 3.11132 12.1132 3.30774 11.9464C3.50417 11.7796 3.74288 11.6718 3.99679 11.6353L11.8167 10.4834L15.2602 3.36393C15.3725 3.1293 15.5479 2.93141 15.7663 2.79295C15.9846 2.65449 16.2372 2.58105 16.4949 2.58105C16.7526 2.58105 17.0051 2.65449 17.2235 2.79295C17.4419 2.93141 17.6173 3.1293 17.7296 3.36393L21.2142 10.4695L29.0341 11.6214C29.288 11.6579 29.5267 11.7657 29.7232 11.9325C29.9196 12.0993 30.0659 12.3185 30.1454 12.5651C30.2182 12.8062 30.2247 13.0627 30.1643 13.3072C30.1038 13.5517 29.9787 13.7749 29.8024 13.953L24.1501 19.5042L25.522 27.3176C25.571 27.5778 25.5454 27.8467 25.4481 28.0926C25.3509 28.3386 25.1861 28.5512 24.9733 28.7054C24.7248 28.8815 24.4257 28.9694 24.1227 28.9552Z" fill="#16425A"/>
</svg>
