<svg width="51" height="51" viewBox="0 0 51 51" fill="none" xmlns="http://www.w3.org/2000/svg">
<path d="M37.3059 44.1542C36.9696 44.1556 36.638 44.0763 36.3387 43.9229L25.6156 38.3091L14.8925 43.9229C14.5443 44.106 14.1517 44.1878 13.7594 44.1589C13.367 44.1299 12.9907 43.9915 12.6731 43.7593C12.3555 43.5272 12.1094 43.2106 11.9628 42.8455C11.8162 42.4804 11.775 42.0816 11.8438 41.6942L13.9463 29.8568L5.28376 21.4465C5.01349 21.1768 4.82176 20.8386 4.72916 20.4681C4.63655 20.0977 4.64656 19.7091 4.75812 19.3439C4.87998 18.9702 5.10415 18.6382 5.40518 18.3855C5.70622 18.1328 6.07206 17.9695 6.4612 17.9142L18.4458 16.169L23.7233 5.38286C23.8955 5.02737 24.1643 4.72758 24.4989 4.51781C24.8336 4.30804 25.2206 4.19678 25.6156 4.19678C26.0106 4.19678 26.3976 4.30804 26.7322 4.51781C27.0669 4.72758 27.3357 5.02737 27.5079 5.38286L32.8484 16.148L44.8331 17.8931C45.2222 17.9485 45.5881 18.1117 45.8891 18.3644C46.1901 18.6172 46.4143 18.9492 46.5362 19.3229C46.6477 19.688 46.6577 20.0767 46.5651 20.4471C46.4725 20.8175 46.2808 21.1557 46.0105 21.4255L37.3479 29.8357L39.4505 41.6732C39.5256 42.0674 39.4863 42.4748 39.3372 42.8474C39.1882 43.2199 38.9357 43.5421 38.6095 43.7758C38.2287 44.0426 37.7703 44.1757 37.3059 44.1542ZM25.6156 33.8516C25.9526 33.8431 26.286 33.9229 26.5828 34.0829L34.5095 38.2881L32.9956 29.4362C32.9369 29.0983 32.9617 28.751 33.068 28.4248C33.1743 28.0987 33.3588 27.8035 33.6054 27.565L39.9131 21.4044L31.0823 20.1008C30.7584 20.0356 30.4545 19.8951 30.1952 19.6905C29.9358 19.4859 29.7283 19.2231 29.5894 18.9234L25.6156 11.0388L21.6417 18.9234C21.4896 19.2255 21.2668 19.4865 20.9923 19.6842C20.7178 19.8818 20.3996 20.0103 20.0648 20.0588L11.234 21.3624L17.5417 27.5229C17.7883 27.7614 17.9728 28.0566 18.0791 28.3828C18.1854 28.709 18.2102 29.0562 18.1515 29.3942L16.6376 38.1409L24.5643 33.9357C24.9002 33.8109 25.2641 33.7818 25.6156 33.8516Z" fill="#231F20"/>
</svg>
