<svg width="51" height="51" viewBox="0 0 51 51" fill="none" xmlns="http://www.w3.org/2000/svg">
<path d="M36.9211 44.1542C36.5849 44.1556 36.2532 44.0763 35.9539 43.9229L25.2308 38.3091L14.5077 43.9229C14.1595 44.106 13.7669 44.1878 13.3746 44.1589C12.9823 44.1299 12.6059 43.9915 12.2883 43.7593C11.9707 43.5272 11.7246 43.2106 11.578 42.8455C11.4314 42.4804 11.3902 42.0816 11.459 41.6942L13.5616 29.8568L4.89899 21.4465C4.62872 21.1768 4.437 20.8386 4.34439 20.4681C4.25179 20.0977 4.2618 19.7091 4.37335 19.3439C4.49522 18.9702 4.71938 18.6382 5.02042 18.3855C5.32145 18.1328 5.68729 17.9695 6.07643 17.9142L18.0611 16.169L23.3385 5.38286C23.5107 5.02737 23.7795 4.72758 24.1142 4.51781C24.4489 4.30804 24.8358 4.19678 25.2308 4.19678C25.6258 4.19678 26.0128 4.30804 26.3475 4.51781C26.6822 4.72758 26.951 5.02737 27.1231 5.38286L32.4637 16.148L44.4483 17.8931C44.8374 17.9485 45.2033 18.1117 45.5043 18.3644C45.8054 18.6172 46.0295 18.9492 46.1514 19.3229C46.2629 19.688 46.2729 20.0767 46.1803 20.4471C46.0877 20.8175 45.896 21.1557 45.6257 21.4255L36.9632 29.8357L39.0657 41.6732C39.1408 42.0674 39.1015 42.4748 38.9525 42.8474C38.8034 43.2199 38.5509 43.5421 38.2247 43.7758C37.844 44.0426 37.3855 44.1757 36.9211 44.1542ZM25.2308 33.8516C25.5679 33.8431 25.9013 33.9229 26.198 34.0829L34.1247 38.2881L32.6108 29.4362C32.5521 29.0983 32.577 28.751 32.6832 28.4248C32.7895 28.0987 32.974 27.8035 33.2206 27.565L39.5283 21.4044L30.6975 20.1008C30.3737 20.0356 30.0698 19.8951 29.8104 19.6905C29.551 19.4859 29.3435 19.2231 29.2047 18.9234L25.2308 11.0388L21.257 18.9234C21.1048 19.2255 20.8821 19.4865 20.6075 19.6842C20.333 19.8818 20.0148 20.0103 19.68 20.0588L10.8493 21.3624L17.157 27.5229C17.4035 27.7614 17.588 28.0566 17.6943 28.3828C17.8006 28.709 17.8254 29.0562 17.7667 29.3942L16.2529 38.1409L24.1795 33.9357C24.5154 33.8109 24.8794 33.7818 25.2308 33.8516Z" fill="#231F20"/>
</svg>
