<svg width="40" height="39" viewBox="0 0 40 39" fill="none" xmlns="http://www.w3.org/2000/svg">
<path d="M29.8407 35.9566C29.5683 35.9577 29.2995 35.8927 29.0571 35.767L20.3685 31.1656L11.6799 35.767C11.3978 35.9171 11.0797 35.9841 10.7618 35.9604C10.4439 35.9367 10.1389 35.8233 9.88161 35.633C9.62427 35.4427 9.42488 35.1831 9.30609 34.8839C9.1873 34.5847 9.15389 34.2577 9.20964 33.9402L10.9133 24.2375L3.89428 17.344C3.67529 17.1229 3.51994 16.8457 3.44491 16.5421C3.36987 16.2385 3.37799 15.9199 3.46837 15.6206C3.56712 15.3143 3.74875 15.0421 3.99267 14.835C4.23659 14.6278 4.53302 14.494 4.84832 14.4487L14.5591 13.0183L18.8352 4.17726C18.9747 3.88589 19.1925 3.64015 19.4637 3.46821C19.7349 3.29627 20.0484 3.20508 20.3685 3.20508C20.6885 3.20508 21.0021 3.29627 21.2733 3.46821C21.5444 3.64015 21.7623 3.88589 21.9018 4.17726L26.229 13.001L35.9398 14.4314C36.2551 14.4768 36.5515 14.6106 36.7954 14.8178C37.0393 15.0249 37.221 15.2971 37.3197 15.6034C37.4101 15.9027 37.4182 16.2212 37.3432 16.5248C37.2681 16.8285 37.1128 17.1057 36.8938 17.3267L29.8748 24.2203L31.5784 33.923C31.6393 34.2461 31.6074 34.5801 31.4867 34.8854C31.3659 35.1908 31.1613 35.4549 30.897 35.6464C30.5885 35.8651 30.217 35.9742 29.8407 35.9566Z" stroke="black" stroke-width="2"/>
</svg>
