<svg width="51" height="51" viewBox="0 0 51 51" fill="none" xmlns="http://www.w3.org/2000/svg">
<path d="M37.0749 44.1542C36.7387 44.1556 36.407 44.0763 36.1077 43.9229L25.3846 38.3091L14.6615 43.9229C14.3133 44.106 13.9208 44.1878 13.5284 44.1589C13.1361 44.1299 12.7597 43.9915 12.4421 43.7593C12.1245 43.5272 11.8785 43.2106 11.7319 42.8455C11.5852 42.4804 11.544 42.0816 11.6128 41.6942L13.7154 29.8568L5.0528 21.4465C4.78253 21.1768 4.59081 20.8386 4.4982 20.4681C4.4056 20.0977 4.41561 19.7091 4.52716 19.3439C4.64902 18.9702 4.87319 18.6382 5.17423 18.3855C5.47526 18.1328 5.8411 17.9695 6.23024 17.9142L18.2149 16.169L23.4923 5.38286C23.6645 5.02737 23.9333 4.72758 24.268 4.51781C24.6027 4.30804 24.9897 4.19678 25.3846 4.19678C25.7796 4.19678 26.1666 4.30804 26.5013 4.51781C26.836 4.72758 27.1048 5.02737 27.2769 5.38286L32.6175 16.148L44.6021 17.8931C44.9913 17.9485 45.3571 18.1117 45.6581 18.3644C45.9592 18.6172 46.1833 18.9492 46.3052 19.3229C46.4167 19.688 46.4268 20.0767 46.3342 20.4471C46.2415 20.8175 46.0498 21.1557 45.7796 21.4255L37.117 29.8357L39.2195 41.6732C39.2946 42.0674 39.2553 42.4748 39.1063 42.8474C38.9572 43.2199 38.7047 43.5421 38.3785 43.7758C37.9978 44.0426 37.5393 44.1757 37.0749 44.1542ZM25.3846 33.8516C25.7217 33.8431 26.0551 33.9229 26.3518 34.0829L34.2785 38.2881L32.7647 29.4362C32.7059 29.0983 32.7308 28.751 32.8371 28.4248C32.9433 28.0987 33.1278 27.8035 33.3744 27.565L39.6821 21.4044L30.8513 20.1008C30.5275 20.0356 30.2236 19.8951 29.9642 19.6905C29.7049 19.4859 29.4973 19.2231 29.3585 18.9234L25.3846 11.0388L21.4108 18.9234C21.2587 19.2255 21.0359 19.4865 20.7614 19.6842C20.4868 19.8818 20.1687 20.0103 19.8339 20.0588L11.0031 21.3624L17.3108 27.5229C17.5574 27.7614 17.7418 28.0566 17.8481 28.3828C17.9544 28.709 17.9793 29.0562 17.9205 29.3942L16.4067 38.1409L24.3334 33.9357C24.6692 33.8109 25.0332 33.7818 25.3846 33.8516Z" fill="#231F20"/>
</svg>
