<svg width="36" height="36" viewBox="0 0 36 36" fill="none" xmlns="http://www.w3.org/2000/svg">
<path d="M19.9305 14.0806L14.1456 19.8656C14.01 20 13.9024 20.16 13.829 20.3362C13.7556 20.5124 13.7178 20.7015 13.7178 20.8924C13.7178 21.0833 13.7556 21.2723 13.829 21.4486C13.9024 21.6248 14.01 21.7848 14.1456 21.9192C14.28 22.0548 14.44 22.1624 14.6162 22.2358C14.7924 22.3092 14.9815 22.347 15.1724 22.347C15.3633 22.347 15.5523 22.3092 15.7286 22.2358C15.9048 22.1624 16.0648 22.0548 16.1992 21.9192L21.9842 16.1343C22.2565 15.8619 22.4095 15.4926 22.4095 15.1074C22.4095 14.7223 22.2565 14.3529 21.9842 14.0806C21.7118 13.8083 21.3425 13.6553 20.9574 13.6553C20.5722 13.6553 20.2029 13.8083 19.9305 14.0806Z" fill="#231F20"/>
<path d="M18.4699 25.8093L16.6187 27.646C15.5795 28.7169 14.1824 29.3677 12.694 29.4744C11.2056 29.5811 9.73002 29.1362 8.54868 28.2245C7.92429 27.71 7.41478 27.0703 7.05303 26.3466C6.69129 25.6229 6.48537 24.8314 6.44857 24.0232C6.41177 23.2149 6.54491 22.408 6.83939 21.6544C7.13388 20.9009 7.58315 20.2174 8.15819 19.6483L10.2119 17.5802C10.3474 17.4458 10.455 17.2858 10.5284 17.1096C10.6018 16.9333 10.6396 16.7443 10.6396 16.5534C10.6396 16.3625 10.6018 16.1734 10.5284 15.9972C10.455 15.821 10.3474 15.661 10.2119 15.5265C10.0774 15.391 9.91745 15.2834 9.74121 15.21C9.56497 15.1366 9.37594 15.0988 9.18502 15.0988C8.9941 15.0988 8.80507 15.1366 8.62883 15.21C8.45259 15.2834 8.29264 15.391 8.15819 15.5265L6.32147 17.3777C4.77422 18.876 3.82322 20.8849 3.64501 23.0313C3.46681 25.1777 4.07351 27.3159 5.35249 29.0489C6.11159 30.0337 7.07155 30.8456 8.16859 31.4309C9.26563 32.0162 10.4746 32.3613 11.7153 32.4434C12.956 32.5254 14.2 32.3426 15.3645 31.9069C16.5291 31.4713 17.5877 30.7928 18.4699 29.9166L20.5235 27.863C20.7959 27.5906 20.9489 27.2213 20.9489 26.8361C20.9489 26.451 20.7959 26.0816 20.5235 25.8093C20.2512 25.537 19.8818 25.384 19.4967 25.384C19.1116 25.384 18.7422 25.537 18.4699 25.8093Z" fill="#231F20"/>
<path d="M29.1431 5.30167C27.3983 4.00941 25.2426 3.39652 23.0788 3.5775C20.9151 3.75848 18.8912 4.72094 17.3852 6.28511L15.8233 7.87597C15.6448 8.00576 15.4955 8.17158 15.3851 8.36271C15.2747 8.55385 15.2057 8.76603 15.1825 8.98552C15.1594 9.20501 15.1825 9.42693 15.2506 9.6369C15.3186 9.84687 15.4299 10.0402 15.5774 10.2044C15.7119 10.34 15.8718 10.4476 16.0481 10.521C16.2243 10.5944 16.4133 10.6322 16.6043 10.6322C16.7952 10.6322 16.9842 10.5944 17.1604 10.521C17.3367 10.4476 17.4966 10.34 17.6311 10.2044L19.5112 8.30985C20.5447 7.2343 21.9401 6.57991 23.4278 6.47307C24.9156 6.36622 26.3902 6.81452 27.5667 7.73135C28.1958 8.24593 28.7093 8.88726 29.074 9.61358C29.4386 10.3399 29.6461 11.1349 29.6829 11.9467C29.7197 12.7586 29.5851 13.5691 29.2878 14.3255C28.9904 15.0818 28.5371 15.767 27.9572 16.3365L25.9036 18.4046C25.768 18.539 25.6604 18.699 25.587 18.8752C25.5136 19.0515 25.4758 19.2405 25.4758 19.4314C25.4758 19.6223 25.5136 19.8114 25.587 19.9876C25.6604 20.1638 25.768 20.3238 25.9036 20.4582C26.038 20.5938 26.198 20.7014 26.3742 20.7748C26.5504 20.8482 26.7395 20.886 26.9304 20.886C27.1213 20.886 27.3104 20.8482 27.4866 20.7748C27.6628 20.7014 27.8228 20.5938 27.9572 20.4582L30.0109 18.4046C30.8846 17.5225 31.561 16.4649 31.9952 15.3017C32.4294 14.1386 32.6115 12.8964 32.5295 11.6576C32.4474 10.4188 32.1031 9.21149 31.5193 8.11574C30.9355 7.02 30.1256 6.0608 29.1431 5.30167Z" fill="#231F20"/>
</svg>
