<svg width="33" height="32" viewBox="0 0 33 32" fill="none" xmlns="http://www.w3.org/2000/svg">
<path d="M24.819 28.9552C24.5996 28.9561 24.3832 28.9038 24.1879 28.8026L17.1912 25.0971L10.1944 28.8026C9.96723 28.9234 9.71107 28.9774 9.45508 28.9583C9.19908 28.9392 8.95351 28.8478 8.74628 28.6946C8.53906 28.5414 8.37849 28.3324 8.28283 28.0914C8.18717 27.8504 8.16026 27.5872 8.20516 27.3315L9.57707 19.5181L3.92481 13.9668C3.74846 13.7888 3.62336 13.5656 3.56293 13.3211C3.50251 13.0766 3.50904 12.8201 3.58183 12.579C3.66134 12.3324 3.80761 12.1132 4.00403 11.9464C4.20046 11.7796 4.43917 11.6718 4.69307 11.6353L12.513 10.4834L15.9564 3.36393C16.0688 3.1293 16.2442 2.93141 16.4626 2.79295C16.6809 2.65449 16.9334 2.58105 17.1912 2.58105C17.4489 2.58105 17.7014 2.65449 17.9198 2.79295C18.1381 2.93141 18.3135 3.1293 18.4259 3.36393L21.9105 10.4695L29.7304 11.6214C29.9843 11.6579 30.223 11.7657 30.4195 11.9325C30.6159 12.0993 30.7621 12.3185 30.8417 12.5651C30.9144 12.8062 30.921 13.0627 30.8605 13.3072C30.8001 13.5517 30.675 13.7749 30.4987 13.953L24.8464 19.5042L26.2183 27.3176C26.2673 27.5778 26.2417 27.8467 26.1444 28.0926C26.0472 28.3386 25.8824 28.5512 25.6696 28.7054C25.4211 28.8815 25.122 28.9694 24.819 28.9552Z" stroke="black" stroke-width="1.61056"/>
</svg>
