<svg width="52" height="51" viewBox="0 0 52 51" fill="none" xmlns="http://www.w3.org/2000/svg">
<path d="M37.6902 44.1542C37.3539 44.1556 37.0222 44.0763 36.723 43.9229L25.9999 38.3091L15.2768 43.9229C14.9286 44.106 14.536 44.1878 14.1437 44.1589C13.7513 44.1299 13.375 43.9915 13.0574 43.7593C12.7398 43.5272 12.4937 43.2106 12.3471 42.8455C12.2005 42.4804 12.1592 42.0816 12.228 41.6942L14.3306 29.8568L5.66804 21.4465C5.39777 21.1768 5.20604 20.8386 5.11344 20.4681C5.02083 20.0977 5.03084 19.7091 5.14239 19.3439C5.26426 18.9702 5.48843 18.6382 5.78946 18.3855C6.09049 18.1328 6.45634 17.9695 6.84547 17.9142L18.8301 16.169L24.1076 5.38286C24.2797 5.02737 24.5485 4.72758 24.8832 4.51781C25.2179 4.30804 25.6049 4.19678 25.9999 4.19678C26.3949 4.19678 26.7818 4.30804 27.1165 4.51781C27.4512 4.72758 27.72 5.02737 27.8922 5.38286L33.2327 16.148L45.2173 17.8931C45.6065 17.9485 45.9723 18.1117 46.2734 18.3644C46.5744 18.6172 46.7986 18.9492 46.9204 19.3229C47.032 19.688 47.042 20.0767 46.9494 20.4471C46.8568 20.8175 46.6651 21.1557 46.3948 21.4255L37.7322 29.8357L39.8348 41.6732C39.9098 42.0674 39.8705 42.4748 39.7215 42.8474C39.5725 43.2199 39.32 43.5421 38.9937 43.7758C38.613 44.0426 38.1546 44.1757 37.6902 44.1542ZM25.9999 33.8516C26.3369 33.8431 26.6703 33.9229 26.9671 34.0829L34.8937 38.2881L33.3799 29.4362C33.3212 29.0983 33.346 28.751 33.4523 28.4248C33.5586 28.0987 33.743 27.8035 33.9896 27.565L40.2973 21.4044L31.4666 20.1008C31.1427 20.0356 30.8388 19.8951 30.5794 19.6905C30.3201 19.4859 30.1126 19.2231 29.9737 18.9234L25.9999 11.0388L22.026 18.9234C21.8739 19.2255 21.6511 19.4865 21.3766 19.6842C21.1021 19.8818 20.7839 20.0103 20.4491 20.0588L11.6183 21.3624L17.926 27.5229C18.1726 27.7614 18.3571 28.0566 18.4634 28.3828C18.5696 28.709 18.5945 29.0562 18.5358 29.3942L17.0219 38.1409L24.9486 33.9357C25.2845 33.8109 25.6484 33.7818 25.9999 33.8516Z" fill="#231F20"/>
</svg>
