<svg width="35" height="36" viewBox="0 0 35 36" fill="none" xmlns="http://www.w3.org/2000/svg">
<path d="M29.5178 9.16347L23.7328 6.56022H23.6605H23.487H23.3134H22.9519H22.8072H22.6192H22.5469L17.3549 8.88868L12.1628 6.56022H12.0905L11.917 6.43005H11.7434H11.3819H11.2372H11.0492L5.26422 9.0333C4.97568 9.14387 4.73013 9.34394 4.56357 9.6042C4.397 9.86446 4.31817 10.1712 4.33862 10.4796V28.1238C4.33903 28.3658 4.40014 28.6038 4.51637 28.816C4.6326 29.0283 4.80023 29.208 5.0039 29.3387C5.23668 29.489 5.50775 29.5693 5.78487 29.5701C5.98951 29.5691 6.19162 29.5247 6.37784 29.4399L11.5699 27.1114L16.7619 29.4399H16.8342C16.9972 29.5161 17.1749 29.5556 17.3549 29.5556C17.5348 29.5556 17.7125 29.5161 17.8755 29.4399H17.9478L23.1399 27.1114L28.3319 29.4399C28.5181 29.5247 28.7202 29.5691 28.9249 29.5701C29.202 29.5693 29.4731 29.489 29.7058 29.3387C29.9095 29.208 30.0771 29.0283 30.1934 28.816C30.3096 28.6038 30.3707 28.3658 30.3711 28.1238V10.4796C30.3705 10.2014 30.2897 9.92922 30.1384 9.69579C29.987 9.46236 29.7716 9.27753 29.5178 9.16347ZM13.0161 10.118L15.9086 11.4052V25.8677L13.0161 24.5805V10.118ZM27.4786 25.8821L24.5861 24.595V10.1325L27.4786 11.4196V25.8821Z" fill="#231F20"/>
</svg>
