<svg width="34" height="32" viewBox="0 0 34 32" fill="none" xmlns="http://www.w3.org/2000/svg">
<path d="M24.9708 28.9552C24.7514 28.9561 24.535 28.9038 24.3398 28.8026L17.343 25.0971L10.3463 28.8026C10.1191 28.9234 9.86293 28.9774 9.60693 28.9583C9.35093 28.9392 9.10536 28.8478 8.89814 28.6946C8.69091 28.5414 8.53034 28.3324 8.43469 28.0914C8.33903 27.8504 8.31212 27.5872 8.35702 27.3315L9.72892 19.5181L4.07666 13.9668C3.90031 13.7888 3.77521 13.5656 3.71479 13.3211C3.65437 13.0766 3.6609 12.8201 3.73368 12.579C3.8132 12.3324 3.95947 12.1132 4.15589 11.9464C4.35231 11.7796 4.59102 11.6718 4.84493 11.6353L12.6648 10.4834L16.1083 3.36393C16.2206 3.1293 16.396 2.93141 16.6144 2.79295C16.8328 2.65449 17.0853 2.58105 17.343 2.58105C17.6007 2.58105 17.8533 2.65449 18.0716 2.79295C18.29 2.93141 18.4654 3.1293 18.5777 3.36393L22.0624 10.4695L29.8823 11.6214C30.1362 11.6579 30.3749 11.7657 30.5713 11.9325C30.7677 12.0993 30.914 12.3185 30.9935 12.5651C31.0663 12.8062 31.0728 13.0627 31.0124 13.3072C30.952 13.5517 30.8269 13.7749 30.6505 13.953L24.9983 19.5042L26.3702 27.3176C26.4192 27.5778 26.3935 27.8467 26.2963 28.0926C26.199 28.3386 26.0343 28.5512 25.8214 28.7054C25.573 28.8815 25.2739 28.9694 24.9708 28.9552Z" fill="#16425A"/>
</svg>
