<svg width="51" height="51" viewBox="0 0 51 51" fill="none" xmlns="http://www.w3.org/2000/svg">
<path d="M37.4594 44.1542C37.1232 44.1556 36.7915 44.0763 36.4923 43.9229L25.7692 38.3091L15.0461 43.9229C14.6979 44.106 14.3053 44.1878 13.9129 44.1589C13.5206 44.1299 13.1442 43.9915 12.8266 43.7593C12.5091 43.5272 12.263 43.2106 12.1164 42.8455C11.9698 42.4804 11.9285 42.0816 11.9973 41.6942L14.0999 29.8568L5.43732 21.4465C5.16705 21.1768 4.97533 20.8386 4.88272 20.4681C4.79012 20.0977 4.80013 19.7091 4.91168 19.3439C5.03355 18.9702 5.25771 18.6382 5.55875 18.3855C5.85978 18.1328 6.22562 17.9695 6.61476 17.9142L18.5994 16.169L23.8768 5.38286C24.049 5.02737 24.3178 4.72758 24.6525 4.51781C24.9872 4.30804 25.3742 4.19678 25.7692 4.19678C26.1641 4.19678 26.5511 4.30804 26.8858 4.51781C27.2205 4.72758 27.4893 5.02737 27.6615 5.38286L33.002 16.148L44.9866 17.8931C45.3758 17.9485 45.7416 18.1117 46.0427 18.3644C46.3437 18.6172 46.5679 18.9492 46.6897 19.3229C46.8013 19.688 46.8113 20.0767 46.7187 20.4471C46.6261 20.8175 46.4343 21.1557 46.1641 21.4255L37.5015 29.8357L39.6041 41.6732C39.6791 42.0674 39.6398 42.4748 39.4908 42.8474C39.3418 43.2199 39.0892 43.5421 38.763 43.7758C38.3823 44.0426 37.9239 44.1757 37.4594 44.1542ZM25.7692 33.8516C26.1062 33.8431 26.4396 33.9229 26.7363 34.0829L34.663 38.2881L33.1492 29.4362C33.0904 29.0983 33.1153 28.751 33.2216 28.4248C33.3279 28.0987 33.5123 27.8035 33.7589 27.565L40.0666 21.4044L31.2358 20.1008C30.912 20.0356 30.6081 19.8951 30.3487 19.6905C30.0894 19.4859 29.8819 19.2231 29.743 18.9234L25.7692 11.0388L21.7953 18.9234C21.6432 19.2255 21.4204 19.4865 21.1459 19.6842C20.8713 19.8818 20.5532 20.0103 20.2184 20.0588L11.3876 21.3624L17.6953 27.5229C17.9419 27.7614 18.1264 28.0566 18.2326 28.3828C18.3389 28.709 18.3638 29.0562 18.305 29.3942L16.7912 38.1409L24.7179 33.9357C25.0537 33.8109 25.4177 33.7818 25.7692 33.8516Z" fill="#231F20"/>
</svg>
