<svg width="33" height="32" viewBox="0 0 33 32" fill="none" xmlns="http://www.w3.org/2000/svg">
<path d="M24.2743 28.9552C24.0549 28.9561 23.8385 28.9038 23.6432 28.8026L16.6465 25.0971L9.64975 28.8026C9.42255 28.9234 9.1664 28.9774 8.9104 28.9583C8.6544 28.9392 8.40883 28.8478 8.2016 28.6946C7.99438 28.5414 7.83381 28.3324 7.73815 28.0914C7.6425 27.8504 7.61559 27.5872 7.66048 27.3315L9.03239 19.5181L3.38013 13.9668C3.20378 13.7888 3.07868 13.5656 3.01826 13.3211C2.95783 13.0766 2.96436 12.8201 3.03715 12.579C3.11667 12.3324 3.26293 12.1132 3.45936 11.9464C3.65578 11.7796 3.89449 11.6718 4.1484 11.6353L11.9683 10.4834L15.4118 3.36393C15.5241 3.1293 15.6995 2.93141 15.9179 2.79295C16.1363 2.65449 16.3888 2.58105 16.6465 2.58105C16.9042 2.58105 17.1567 2.65449 17.3751 2.79295C17.5935 2.93141 17.7689 3.1293 17.8812 3.36393L21.3659 10.4695L29.1857 11.6214C29.4396 11.6579 29.6784 11.7657 29.8748 11.9325C30.0712 12.0993 30.2175 12.3185 30.297 12.5651C30.3698 12.8062 30.3763 13.0627 30.3159 13.3072C30.2554 13.5517 30.1304 13.7749 29.954 13.953L24.3017 19.5042L25.6736 27.3176C25.7226 27.5778 25.697 27.8467 25.5997 28.0926C25.5025 28.3386 25.3377 28.5512 25.1249 28.7054C24.8765 28.8815 24.5773 28.9694 24.2743 28.9552Z" fill="#16425A"/>
</svg>
