<svg width="14" height="15" viewBox="0 0 14 15" fill="none" xmlns="http://www.w3.org/2000/svg">
<path d="M9.774 2.39355C8.80986 2.39355 7.88451 2.84238 7.28054 3.55163C6.67656 2.84238 5.75121 2.39355 4.78707 2.39355C3.08043 2.39355 1.7395 3.73449 1.7395 5.44112C1.7395 7.53563 3.62345 9.24227 6.47709 11.8355L7.28054 12.5614L8.08399 11.8299C10.9376 9.24227 12.8216 7.53563 12.8216 5.44112C12.8216 3.73449 11.4806 2.39355 9.774 2.39355ZM7.33595 11.0099L7.28054 11.0653L7.22513 11.0099C4.58759 8.62168 2.84771 7.04248 2.84771 5.44112C2.84771 4.33292 3.67886 3.50176 4.78707 3.50176C5.64039 3.50176 6.47155 4.05032 6.76522 4.80945H7.80139C8.08953 4.05032 8.92068 3.50176 9.774 3.50176C10.8822 3.50176 11.7134 4.33292 11.7134 5.44112C11.7134 7.04248 9.97348 8.62168 7.33595 11.0099Z" fill="#282A2C"/>
</svg>
