<svg width="19" height="18" viewBox="0 0 19 18" fill="none" xmlns="http://www.w3.org/2000/svg">
<g clip-path="url(#clip0_7105_1031)">
<path d="M9.09322 11.3788C9.22279 11.2845 9.39838 11.2845 9.52795 11.3788L12.0436 13.2096C12.3332 13.4204 12.7231 13.1371 12.6122 12.7966L11.6504 9.84346C11.6004 9.68992 11.6559 9.5217 11.7875 9.42808L14.2789 7.65521C14.572 7.44666 14.4245 6.98483 14.0648 6.98483H11.008C10.8476 6.98483 10.7056 6.88136 10.6564 6.72872L9.66218 3.64317C9.55215 3.3017 9.06902 3.3017 8.95898 3.64318L7.96475 6.72872C7.91557 6.88136 7.77352 6.98483 7.61315 6.98483H4.55641C4.1967 6.98483 4.04916 7.44666 4.34223 7.65521L6.83366 9.42808C6.96522 9.5217 7.02073 9.68992 6.97073 9.84346L6.00893 12.7966C5.89803 13.1371 6.28798 13.4204 6.57754 13.2096L9.09322 11.3788Z" fill="black"/>
</g>
<defs>
<clipPath id="clip0_7105_1031">
<rect width="17.7313" height="17.7313" fill="white" transform="translate(0.445312 0.0891113)"/>
</clipPath>
</defs>
</svg>
