<svg width="24" height="24" viewBox="0 0 24 24" fill="none" xmlns="http://www.w3.org/2000/svg">
<g clip-path="url(#clip0_319_992)">
<path d="M11.7058 15.2807C11.8812 15.1531 12.1188 15.1531 12.2942 15.2807L15.6993 17.7588C16.0912 18.044 16.619 17.6606 16.4689 17.1997L15.1671 13.2025C15.0994 12.9947 15.1745 12.767 15.3526 12.6403L18.7249 10.2406C19.1215 9.95835 18.9218 9.33325 18.435 9.33325H14.2975C14.0805 9.33325 13.8882 9.1932 13.8216 8.9866L12.4759 4.8102C12.327 4.34799 11.673 4.34799 11.5241 4.8102L10.1784 8.9866C10.1118 9.1932 9.91953 9.33325 9.70246 9.33325H5.56504C5.07817 9.33325 4.87846 9.95835 5.27515 10.2406L8.64739 12.6403C8.82546 12.767 8.9006 12.9947 8.83292 13.2025L7.53109 17.1997C7.38098 17.6606 7.90879 18.044 8.30073 17.7588L11.7058 15.2807Z" fill="black"/>
</g>
<defs>
<clipPath id="clip0_319_992">
<rect width="24" height="24" fill="white"/>
</clipPath>
</defs>
</svg>
