<svg width="19" height="18" viewBox="0 0 19 18" fill="none" xmlns="http://www.w3.org/2000/svg">
<g clip-path="url(#clip0_7105_1028)">
<path d="M9.36202 11.3788C9.49159 11.2845 9.66718 11.2845 9.79675 11.3788L12.3124 13.2096C12.602 13.4204 12.9919 13.1371 12.881 12.7966L11.9192 9.84346C11.8692 9.68992 11.9247 9.5217 12.0563 9.42808L14.5477 7.65521C14.8408 7.44666 14.6933 6.98483 14.3336 6.98483H11.2768C11.1164 6.98483 10.9744 6.88136 10.9252 6.72872L9.93098 3.64317C9.82095 3.3017 9.33781 3.3017 9.22778 3.64318L8.23355 6.72872C8.18437 6.88136 8.04232 6.98483 7.88195 6.98483H4.82521C4.4655 6.98483 4.31795 7.44666 4.61103 7.65521L7.10246 9.42808C7.23402 9.5217 7.28953 9.68992 7.23953 9.84346L6.27773 12.7966C6.16683 13.1371 6.55678 13.4204 6.84634 13.2096L9.36202 11.3788Z" fill="black"/>
</g>
<defs>
<clipPath id="clip0_7105_1028">
<rect width="17.7313" height="17.7313" fill="white" transform="translate(0.713867 0.0891113)"/>
</clipPath>
</defs>
</svg>
