<svg width="19" height="18" viewBox="0 0 19 18" fill="none" xmlns="http://www.w3.org/2000/svg">
<g clip-path="url(#clip0_7105_941)">
<path d="M9.54048 11.3788C9.67005 11.2845 9.84564 11.2845 9.97522 11.3788L12.4909 13.2096C12.7805 13.4204 13.1704 13.1371 13.0595 12.7966L12.0977 9.84346C12.0477 9.68992 12.1032 9.5217 12.2348 9.42808L14.7262 7.65521C15.0193 7.44666 14.8717 6.98483 14.512 6.98483H11.4553C11.2949 6.98483 11.1529 6.88136 11.1037 6.72872L10.1094 3.64317C9.99942 3.3017 9.51628 3.3017 9.40625 3.64318L8.41202 6.72872C8.36283 6.88136 8.22078 6.98483 8.06042 6.98483H5.00367C4.64397 6.98483 4.49642 7.44666 4.7895 7.65521L7.28092 9.42808C7.41249 9.5217 7.468 9.68992 7.41799 9.84346L6.4562 12.7966C6.34529 13.1371 6.73524 13.4204 7.02481 13.2096L9.54048 11.3788Z" fill="black"/>
</g>
<defs>
<clipPath id="clip0_7105_941">
<rect width="17.7313" height="17.7313" fill="white" transform="translate(0.89209 0.0891113)"/>
</clipPath>
</defs>
</svg>
