<svg width="19" height="18" viewBox="0 0 19 18" fill="none" xmlns="http://www.w3.org/2000/svg">
<g clip-path="url(#clip0_7105_1019)">
<path d="M9.16817 11.3788C9.29774 11.2845 9.47333 11.2845 9.6029 11.3788L12.1186 13.2096C12.4081 13.4204 12.7981 13.1371 12.6872 12.7966L11.7254 9.84346C11.6754 9.68992 11.7309 9.5217 11.8625 9.42808L14.3539 7.65521C14.647 7.44666 14.4994 6.98483 14.1397 6.98483H11.083C10.9226 6.98483 10.7805 6.88136 10.7314 6.72872L9.73713 3.64317C9.6271 3.3017 9.14397 3.3017 9.03393 3.64318L8.0397 6.72872C7.99052 6.88136 7.84847 6.98483 7.6881 6.98483H4.63136C4.27165 6.98483 4.12411 7.44666 4.41719 7.65521L6.90861 9.42808C7.04017 9.5217 7.09568 9.68992 7.04568 9.84346L6.08388 12.7966C5.97298 13.1371 6.36293 13.4204 6.6525 13.2096L9.16817 11.3788Z" fill="black"/>
</g>
<defs>
<clipPath id="clip0_7105_1019">
<rect width="17.7313" height="17.7313" fill="white" transform="translate(0.519775 0.0891113)"/>
</clipPath>
</defs>
</svg>
