<svg width="19" height="18" viewBox="0 0 19 18" fill="none" xmlns="http://www.w3.org/2000/svg">
<g clip-path="url(#clip0_7105_1025)">
<path d="M9.63081 11.3788C9.76039 11.2845 9.93598 11.2845 10.0655 11.3788L12.5812 13.2096C12.8708 13.4204 13.2607 13.1371 13.1498 12.7966L12.188 9.84346C12.138 9.68992 12.1935 9.5217 12.3251 9.42808L14.8165 7.65521C15.1096 7.44666 14.9621 6.98483 14.6024 6.98483H11.5456C11.3852 6.98483 11.2432 6.88136 11.194 6.72872L10.1998 3.64317C10.0897 3.3017 9.60661 3.3017 9.49658 3.64318L8.50235 6.72872C8.45317 6.88136 8.31112 6.98483 8.15075 6.98483H5.094C4.7343 6.98483 4.58675 7.44666 4.87983 7.65521L7.37126 9.42808C7.50282 9.5217 7.55833 9.68992 7.50833 9.84346L6.54653 12.7966C6.43563 13.1371 6.82558 13.4204 7.11514 13.2096L9.63081 11.3788Z" fill="black"/>
</g>
<defs>
<clipPath id="clip0_7105_1025">
<rect width="17.7313" height="17.7313" fill="white" transform="translate(0.982666 0.0891113)"/>
</clipPath>
</defs>
</svg>
