<svg width="18" height="18" viewBox="0 0 18 18" fill="none" xmlns="http://www.w3.org/2000/svg">
<g clip-path="url(#clip0_7105_1022)">
<path d="M8.89937 11.3788C9.02894 11.2845 9.20453 11.2845 9.3341 11.3788L11.8498 13.2096C12.1393 13.4204 12.5293 13.1371 12.4184 12.7966L11.4566 9.84346C11.4066 9.68992 11.4621 9.5217 11.5937 9.42808L14.0851 7.65521C14.3782 7.44666 14.2306 6.98483 13.8709 6.98483H10.8142C10.6538 6.98483 10.5118 6.88136 10.4626 6.72872L9.46834 3.64317C9.3583 3.3017 8.87517 3.3017 8.76514 3.64318L7.7709 6.72872C7.72172 6.88136 7.57967 6.98483 7.4193 6.98483H4.36256C4.00285 6.98483 3.85531 7.44666 4.14839 7.65521L6.63981 9.42808C6.77137 9.5217 6.82688 9.68992 6.77688 9.84346L5.81509 12.7966C5.70418 13.1371 6.09413 13.4204 6.3837 13.2096L8.89937 11.3788Z" fill="black"/>
</g>
<defs>
<clipPath id="clip0_7105_1022">
<rect width="17.7313" height="17.7313" fill="white" transform="translate(0.251221 0.0891113)"/>
</clipPath>
</defs>
</svg>
