<svg width="36" height="24" viewBox="0 0 36 24" fill="none" xmlns="http://www.w3.org/2000/svg">
<path fill-rule="evenodd" clip-rule="evenodd" d="M0.499717 11.9999C0.499717 12.3314 0.631412 12.6494 0.865832 12.8838C1.10025 13.1182 1.4182 13.2499 1.74972 13.2499L31.2322 13.2499L23.3647 21.1149C23.2485 21.2311 23.1563 21.3691 23.0934 21.5209C23.0305 21.6728 22.9981 21.8355 22.9981 21.9999C22.9981 22.1642 23.0305 22.327 23.0934 22.4788C23.1563 22.6307 23.2485 22.7687 23.3647 22.8849C23.4809 23.0011 23.6189 23.0933 23.7708 23.1562C23.9226 23.2191 24.0854 23.2515 24.2497 23.2515C24.4141 23.2515 24.5768 23.2191 24.7287 23.1562C24.8805 23.0933 25.0185 23.0011 25.1347 22.8849L35.1347 12.8849C35.2511 12.7688 35.3435 12.6308 35.4065 12.479C35.4695 12.3271 35.502 12.1643 35.502 11.9999C35.502 11.8355 35.4695 11.6727 35.4065 11.5208C35.3435 11.3689 35.2511 11.231 35.1347 11.1149L25.1347 1.11489C25.0185 0.998668 24.8805 0.906476 24.7287 0.843579C24.5768 0.780681 24.4141 0.748309 24.2497 0.748309C24.0854 0.748309 23.9226 0.780681 23.7708 0.843579C23.6189 0.906476 23.4809 0.998668 23.3647 1.11489C23.2485 1.23111 23.1563 1.36908 23.0934 1.52093C23.0305 1.67278 22.9981 1.83553 22.9981 1.99989C22.9981 2.16425 23.0305 2.327 23.0934 2.47885C23.1563 2.63069 23.2485 2.76867 23.3647 2.88489L31.2322 10.7499L1.74972 10.7499C1.4182 10.7499 1.10025 10.8816 0.865832 11.116C0.631411 11.3504 0.499717 11.6684 0.499717 11.9999Z" fill="black"/>
</svg>
