<svg width="36" height="24" viewBox="0 0 36 24" fill="none" xmlns="http://www.w3.org/2000/svg">
<path fill-rule="evenodd" clip-rule="evenodd" d="M35.5003 12.0001C35.5003 11.6686 35.3686 11.3507 35.1342 11.1162C34.8997 10.8818 34.5818 10.7501 34.2503 10.7501H4.76778L12.6353 2.88511C12.7515 2.76889 12.8437 2.63092 12.9066 2.47907C12.9695 2.32722 13.0019 2.16447 13.0019 2.00011C13.0019 1.83575 12.9695 1.673 12.9066 1.52116C12.8437 1.36931 12.7515 1.23133 12.6353 1.11511C12.5191 0.998894 12.3811 0.906704 12.2292 0.843806C12.0774 0.780908 11.9146 0.748535 11.7503 0.748535C11.5859 0.748535 11.4232 0.780908 11.2713 0.843806C11.1195 0.906704 10.9815 0.998894 10.8653 1.11511L0.865281 11.1151C0.748873 11.2312 0.656516 11.3692 0.5935 11.521C0.530484 11.6729 0.498047 11.8357 0.498047 12.0001C0.498047 12.1645 0.530484 12.3273 0.5935 12.4792C0.656516 12.6311 0.748873 12.769 0.865281 12.8851L10.8653 22.8851C10.9815 23.0013 11.1195 23.0935 11.2713 23.1564C11.4232 23.2193 11.5859 23.2517 11.7503 23.2517C11.9146 23.2517 12.0774 23.2193 12.2292 23.1564C12.3811 23.0935 12.5191 23.0013 12.6353 22.8851C12.7515 22.7689 12.8437 22.6309 12.9066 22.4791C12.9695 22.3272 13.0019 22.1645 13.0019 22.0001C13.0019 21.8358 12.9695 21.673 12.9066 21.5212C12.8437 21.3693 12.7515 21.2313 12.6353 21.1151L4.76778 13.2501H34.2503C34.5818 13.2501 34.8997 13.1184 35.1342 12.884C35.3686 12.6496 35.5003 12.3316 35.5003 12.0001Z" fill="black" fill-opacity="0.25"/>
</svg>
