<svg width="37" height="36" viewBox="0 0 37 36" fill="none" xmlns="http://www.w3.org/2000/svg">
<path d="M27.8407 34.0389C27.5683 34.04 27.2995 33.975 27.0571 33.8493L18.3685 29.2479L9.67992 33.8493C9.39779 33.9994 9.07969 34.0664 8.76179 34.0427C8.44389 34.019 8.13894 33.9055 7.88161 33.7152C7.62427 33.5249 7.42488 33.2654 7.30609 32.9662C7.1873 32.667 7.15389 32.34 7.20964 32.0225L8.91328 22.3198L1.89428 15.4263C1.67529 15.2052 1.51994 14.928 1.44491 14.6243C1.36987 14.3207 1.37799 14.0022 1.46837 13.7029C1.56712 13.3966 1.74875 13.1244 1.99267 12.9173C2.23659 12.7101 2.53302 12.5763 2.84832 12.531L12.5591 11.1005L16.8352 2.25954C16.9747 1.96816 17.1925 1.72243 17.4637 1.55049C17.7349 1.37855 18.0484 1.28735 18.3685 1.28735C18.6885 1.28735 19.0021 1.37855 19.2733 1.55049C19.5444 1.72243 19.7623 1.96816 19.9018 2.25954L24.229 11.0833L33.9398 12.5137C34.2551 12.5591 34.5515 12.6929 34.7954 12.9C35.0393 13.1072 35.221 13.3793 35.3197 13.6856C35.4101 13.9849 35.4182 14.3035 35.3432 14.6071C35.2681 14.9107 35.1128 15.188 34.8938 15.409L27.8748 22.3026L29.5784 32.0053C29.6393 32.3284 29.6074 32.6623 29.4867 32.9677C29.3659 33.2731 29.1613 33.5371 28.897 33.7287C28.5885 33.9474 28.217 34.0565 27.8407 34.0389Z" stroke="black" stroke-width="2"/>
</svg>
