<svg width="41" height="9" viewBox="0 0 41 9" fill="none" xmlns="http://www.w3.org/2000/svg">
<path d="M5.08036 8.91121C3.94606 8.91121 2.74874 8.40708 1.92952 7.58786C1.11031 6.76864 0.669189 5.63434 0.669189 4.50004C0.669189 3.36574 1.17332 2.23144 1.92952 1.3492C2.74874 0.529985 3.88304 0.0888672 5.08036 0.0888672C6.21466 0.0888672 7.34897 0.593001 8.16818 1.3492C8.9874 2.16842 9.49154 3.30272 9.49154 4.50004C9.49154 5.63434 8.9874 6.76864 8.16818 7.58786C7.34897 8.40708 6.21466 8.91121 5.08036 8.91121ZM23.9224 7.58786C24.7416 6.76864 25.2457 5.63434 25.2457 4.50004C25.2457 3.36574 24.7416 2.23144 23.9224 1.3492C23.1032 0.529985 21.9689 0.0888672 20.8346 0.0888672C19.7003 0.0888672 18.5029 0.593001 17.6837 1.3492C16.8645 2.16842 16.4234 3.30272 16.4234 4.50004C16.4234 5.63434 16.9275 6.76864 17.6837 7.58786C18.5029 8.40708 19.6372 8.91121 20.8346 8.91121C21.9689 8.91121 23.1032 8.40708 23.9224 7.58786ZM39.6766 7.58786C40.4958 6.76864 40.9999 5.63434 40.9999 4.50004C40.9999 3.36574 40.4958 2.23144 39.6766 1.3492C38.8573 0.529985 37.723 0.0888672 36.5887 0.0888672C35.4544 0.0888672 34.2571 0.593001 33.4379 1.3492C32.6187 2.16842 32.1776 3.30272 32.1776 4.50004C32.1776 5.63434 32.6817 6.76864 33.4379 7.58786C34.2571 8.40708 35.3914 8.91121 36.5887 8.91121C37.723 8.91121 38.8573 8.40708 39.6766 7.58786Z" fill="black"/>
</svg>
