<svg width="30" height="28" viewBox="0 0 30 28" fill="none" xmlns="http://www.w3.org/2000/svg">
<path d="M21.7318 0.375C19.1943 0.375 16.7589 1.55625 15.1693 3.42292C13.5797 1.55625 11.1443 0.375 8.60677 0.375C4.1151 0.375 0.585938 3.90417 0.585938 8.39583C0.585938 13.9083 5.54427 18.4 13.0547 25.225L15.1693 27.1354L17.2839 25.2104C24.7943 18.4 29.7526 13.9083 29.7526 8.39583C29.7526 3.90417 26.2234 0.375 21.7318 0.375ZM15.3151 23.0521L15.1693 23.1979L15.0234 23.0521C8.08177 16.7667 3.5026 12.6104 3.5026 8.39583C3.5026 5.47917 5.6901 3.29167 8.60677 3.29167C10.8526 3.29167 13.0401 4.73542 13.813 6.73333H16.5401C17.2984 4.73542 19.4859 3.29167 21.7318 3.29167C24.6484 3.29167 26.8359 5.47917 26.8359 8.39583C26.8359 12.6104 22.2568 16.7667 15.3151 23.0521Z" fill="#282A2C"/>
</svg>
