<svg width="35" height="34" viewBox="0 0 35 34" fill="none" xmlns="http://www.w3.org/2000/svg">
<path d="M26.8407 33.4976C26.5683 33.4987 26.2995 33.4337 26.0571 33.3081L17.3685 28.7066L8.67992 33.3081C8.39779 33.4581 8.07969 33.5251 7.76179 33.5014C7.44389 33.4777 7.13894 33.3643 6.88161 33.174C6.62427 32.9837 6.42488 32.7242 6.30609 32.4249C6.1873 32.1257 6.15389 31.7988 6.20964 31.4813L7.91328 21.7786L0.894283 14.885C0.675293 14.6639 0.519944 14.3867 0.444909 14.0831C0.369875 13.7795 0.377986 13.4609 0.468372 13.1616C0.567115 12.8553 0.748751 12.5832 0.992668 12.376C1.23659 12.1689 1.53302 12.035 1.84832 11.9897L11.5591 10.5593L15.8352 1.71828C15.9747 1.4269 16.1925 1.18117 16.4637 1.00923C16.7349 0.837287 17.0484 0.746094 17.3685 0.746094C17.6885 0.746094 18.0021 0.837287 18.2733 1.00923C18.5444 1.18117 18.7623 1.4269 18.9018 1.71828L23.229 10.542L32.9398 11.9725C33.2551 12.0178 33.5515 12.1516 33.7954 12.3588C34.0393 12.5659 34.221 12.8381 34.3197 13.1444C34.4101 13.4437 34.4182 13.7622 34.3432 14.0659C34.2681 14.3695 34.1128 14.6467 33.8938 14.8678L26.8748 21.7613L28.5784 31.464C28.6393 31.7871 28.6074 32.1211 28.4867 32.4265C28.3659 32.7318 28.1613 32.9959 27.897 33.1874C27.5885 33.4061 27.217 33.5152 26.8407 33.4976Z" fill="#16425A"/>
</svg>
