<svg width="16" height="15" viewBox="0 0 16 15" fill="none" xmlns="http://www.w3.org/2000/svg">
<path d="M11.5415 0.25C10.2365 0.25 8.984 0.8575 8.1665 1.8175C7.349 0.8575 6.0965 0.25 4.7915 0.25C2.4815 0.25 0.666504 2.065 0.666504 4.375C0.666504 7.21 3.2165 9.52 7.079 13.03L8.1665 14.0125L9.254 13.0225C13.1165 9.52 15.6665 7.21 15.6665 4.375C15.6665 2.065 13.8515 0.25 11.5415 0.25ZM8.2415 11.9125L8.1665 11.9875L8.0915 11.9125C4.5215 8.68 2.1665 6.5425 2.1665 4.375C2.1665 2.875 3.2915 1.75 4.7915 1.75C5.9465 1.75 7.0715 2.4925 7.469 3.52H8.8715C9.2615 2.4925 10.3865 1.75 11.5415 1.75C13.0415 1.75 14.1665 2.875 14.1665 4.375C14.1665 6.5425 11.8115 8.68 8.2415 11.9125Z" fill="#282A2C"/>
</svg>
