<svg width="35" height="36" viewBox="0 0 35 36" fill="none" xmlns="http://www.w3.org/2000/svg">
<path d="M33.7541 10.2738L30.6287 13.3992C30.31 13.7178 29.7948 13.7178 29.4761 13.3992L21.9508 5.87379C21.6321 5.55515 21.6321 5.0399 21.9508 4.72126L25.0762 1.59586C26.344 0.328073 28.405 0.328073 29.6795 1.59586L33.7541 5.67041C35.0286 6.93819 35.0286 8.9992 33.7541 10.2738ZM19.266 7.40599L1.46279 25.2092L0.025512 33.4465C-0.171097 34.5583 0.798388 35.521 1.91024 35.3312L10.1475 33.8871L27.9507 16.0839C28.2694 15.7652 28.2694 15.25 27.9507 14.9314L20.4254 7.40599C20.0999 7.08735 19.5847 7.08735 19.266 7.40599ZM8.41189 23.6838C8.03901 23.311 8.03901 22.7143 8.41189 22.3415L18.8525 11.9009C19.2254 11.528 19.822 11.528 20.1949 11.9009C20.5677 12.2737 20.5677 12.8704 20.1949 13.2432L9.75425 23.6838C9.38137 24.0567 8.78477 24.0567 8.41189 23.6838ZM5.96445 29.3855H9.21866V31.8465L4.84581 32.6126L2.73736 30.5041L3.50345 26.1313H5.96445V29.3855Z" fill="black"/>
</svg>
